<?xml version="1.0" encoding="UTF-8"?>
<svg width="512" height="512" viewBox="0 0 512 512" fill="none" xmlns="http://www.w3.org/2000/svg">
  <circle cx="256" cy="256" r="256" fill="#2C7A7B"/>
  <path d="M256 120C187.308 120 132 175.308 132 244C132 312.692 187.308 368 256 368C324.692 368 380 312.692 380 244C380 175.308 324.692 120 256 120ZM256 340C202.841 340 160 297.159 160 244C160 190.841 202.841 148 256 148C309.159 148 352 190.841 352 244C352 297.159 309.159 340 256 340Z" fill="white"/>
  <circle cx="256" cy="244" r="48" fill="white"/>
  <path d="M256 172C218.026 172 188 202.026 188 240C188 277.974 218.026 308 256 308C293.974 308 324 277.974 324 240C324 202.026 293.974 172 256 172ZM256 280C233.909 280 216 262.091 216 240C216 217.909 233.909 200 256 200C278.091 200 296 217.909 296 240C296 262.091 278.091 280 256 280Z" fill="white"/>
  <path d="M304 208L208 304" stroke="white" stroke-width="24" stroke-linecap="round"/>
</svg> 